<?xml version="1.0" encoding="utf-8"?>
<!-- Generator: Adobe Illustrator 24.0.2, SVG Export Plug-In . SVG Version: 6.00 Build 0)  -->
<svg version="1.1" xmlns="http://www.w3.org/2000/svg" xmlns:xlink="http://www.w3.org/1999/xlink" x="0px" y="0px"
	 viewBox="0 0 747.57 338.31" style="enable-background:new 0 0 747.57 338.31;" xml:space="preserve">
<style type="text/css">
	.st0{fill:#1C2747;}
	.st1{fill:url(#SVGID_1_);}
	.st2{fill:url(#SVGID_2_);}
	.st3{fill:url(#SVGID_3_);}
	.st4{fill:url(#SVGID_4_);}
	.st5{fill:url(#SVGID_5_);}
	.st6{fill:url(#SVGID_6_);}
	.st7{fill:url(#SVGID_7_);}
	.st8{fill:url(#SVGID_8_);}
	.st9{fill:url(#SVGID_9_);}
	.st10{fill:url(#SVGID_10_);}
	.st11{fill:url(#SVGID_11_);}
	.st12{fill:url(#SVGID_12_);}
	.st13{fill:url(#SVGID_13_);}
	.st14{fill:url(#SVGID_14_);}
	.st15{fill:url(#SVGID_15_);}
	.st16{fill:url(#SVGID_16_);}
	.st17{fill:url(#SVGID_17_);}
	.st18{fill:url(#SVGID_18_);}
	.st19{fill:url(#SVGID_19_);}
	.st20{fill:url(#SVGID_20_);}
	.st21{fill:url(#SVGID_21_);}
	.st22{fill:url(#SVGID_22_);}
	.st23{fill:url(#SVGID_23_);}
	.st24{fill:url(#SVGID_24_);}
	.st25{fill:url(#SVGID_25_);}
	.st26{fill:url(#SVGID_26_);}
	.st27{fill:url(#SVGID_27_);}
</style>
<g id="prancheta_2">
	<g id="depois">
	</g>
	<g id="antes_1_">
	</g>
	<g id="textos_e_elementos">
	</g>
</g>
<g id="prancheta_1">
	<g id="Textos">
	</g>
	<g id="antes">
	</g>
	<g id="depoiss">
		<g>
			<path class="st0" d="M393.41,264.55L393.41,264.55c-7.18,0-13.06-5.88-13.06-13.06V122.32c0-7.18,5.88-13.06,13.06-13.06h0
				c7.18,0,13.06,5.88,13.06,13.06v129.17C406.48,258.67,400.6,264.55,393.41,264.55z"/>
			<path class="st0" d="M502.13,241.54c-4.09-3.41-6.76-6.98-8.38-9.52c0,0,0,0,0,0c-0.08-0.11-4.69-6.32-5.57-11.97
				c-0.09-0.57-0.16-1.18-0.21-1.83c-0.04-0.53-0.05-0.98-0.06-1.32v-94.58c0-7.18-5.88-13.06-13.06-13.06s-13.06,5.88-13.06,13.06
				v92.57c-0.02,0.71-0.04,1.71,0,2.9c0.38,11.4,5.41,26.22,17.98,36.25c11.87,9.48,24.93,10.27,29.58,10.33v0c0.01,0,0.02,0,0.03,0
				c0.01,0,0.02,0,0.03,0v0c4.06-0.02,10.07-0.56,16.78-3.11c10.39-3.96,16.81-10.6,19.81-14.18c-3.59,1.73-10.71,4.53-19.92,4.02
				C513.9,250.42,505.51,244.36,502.13,241.54z"/>
			<path class="st0" d="M556.96,214.88v-49.22v-7.24V111.6v-5.28v-19.5c0-7.18-5.88-13.06-13.06-13.06
				c-7.18,0-13.06,5.88-13.06,13.06v19.5v5.28v46.82v7.24v27.46c-0.02,8.36-0.04,16.73-0.06,25.09c-0.07,0.61-0.14,1.22-0.21,1.83
				c-0.15,5.1-2.31,9.69-5.72,13.01c-4.72,4.6-10.67,5.12-13.2,5.36c-1.17,0.11-2.21,0.12-3,0.1c-0.79-0.02-1.34-0.08-1.56-0.1
				c-1.74-0.19-8.18-0.98-13.34-6.41c-4.45-4.68-5.35-10.07-5.58-11.97c-0.09-0.57-0.16-1.18-0.21-1.83
				c-0.04-0.53-0.05-0.98-0.06-1.32v-94.58c0-7.18-5.88-13.06-13.06-13.06c-7.18,0-13.06,5.88-13.06,13.06v92.57
				c-0.04,0.65-0.07,1.67,0,2.9c0.38,11.4,5.41,26.22,17.98,36.25c8.74,6.97,18.1,9.24,24.3,9.98v0.36c0-0.12,0-0.24,0-0.36
				c2.23,0.27,4.05,0.34,5.28,0.35v0c0.01,0,0.02,0,0.03,0c0.01,0,0.02,0,0.03,0v0c4.65-0.06,17.7-0.86,29.58-10.33
				c12.56-10.03,17.59-24.85,17.98-36.25C557,216.59,556.98,215.59,556.96,214.88z"/>
			<path class="st0" d="M677.61,188.26c-0.79-2.2-2.1-5.65-4.63-9.7c-0.67-1.07-1.38-2.09-2.13-3.08c-1.13-1.48-2.35-2.87-3.63-4.18
				c-0.43-0.44-0.86-0.86-1.31-1.28c-0.88-0.83-1.8-1.63-2.73-2.4c-0.47-0.38-0.94-0.75-1.41-1.12
				c-10.44-8.01-22.86-11.85-28.35-13.28c-0.25-0.06-0.48-0.12-0.7-0.18c-0.23-0.06-1.69-0.42-3.9-1.06
				c-3.97-1.14-10.39-3.16-16.52-5.85c-1.36-0.6-2.71-1.23-4.01-1.89c-0.3-0.15-0.68-0.35-1.11-0.59c-0.22-0.12-0.44-0.26-0.69-0.4
				c-0.31-0.19-0.64-0.41-0.99-0.65c-0.4-0.27-0.81-0.58-1.23-0.93c-0.63-0.51-1.28-1.09-1.92-1.77c0,0-0.01-0.01-0.01-0.01
				c-0.3-0.32-0.59-0.65-0.86-0.98c-0.07-0.08-0.13-0.17-0.2-0.25c-0.21-0.26-0.41-0.52-0.6-0.78c-0.05-0.07-0.1-0.14-0.15-0.21
				c-0.2-0.29-0.4-0.58-0.58-0.86c-0.02-0.04-0.05-0.08-0.07-0.11c-0.2-0.33-0.4-0.65-0.58-0.98c0-0.01-0.01-0.01-0.01-0.02
				c-0.33-0.59-0.69-1.32-1.05-2.18c-0.22-0.54-0.41-1.06-0.58-1.56c-0.01-0.04-0.03-0.08-0.04-0.12c-0.07-0.23-0.14-0.45-0.2-0.66
				c-0.02-0.08-0.05-0.17-0.07-0.26c-0.08-0.28-0.14-0.54-0.2-0.79c-0.06-0.26-0.12-0.52-0.17-0.78c-0.01-0.05-0.02-0.11-0.03-0.16
				c-0.08-0.4-0.14-0.8-0.2-1.23c-0.14-1.06-0.43-3.58,0.06-6.6c0-0.03,0.01-0.06,0.02-0.09c0.05-0.31,0.11-0.61,0.18-0.93
				c0.01-0.06,0.03-0.13,0.05-0.2c0.06-0.28,0.13-0.57,0.21-0.86c0.03-0.1,0.06-0.2,0.09-0.3c0.08-0.26,0.15-0.52,0.24-0.78
				c0.05-0.13,0.1-0.27,0.15-0.41c0.09-0.23,0.17-0.46,0.27-0.69c0.08-0.18,0.17-0.36,0.25-0.54c0.09-0.19,0.17-0.38,0.26-0.57
				c0.11-0.23,0.25-0.45,0.38-0.68c0.08-0.14,0.15-0.29,0.24-0.43c0.22-0.37,0.46-0.74,0.72-1.1c0.69-0.97,1.43-1.8,2.2-2.52
				c2.31-2.16,4.84-3.33,6.87-4.26c4.71-2.17,8.78-2.45,12.04-2.67c0,0,0,0,0.01,0c0.72-0.05,1.42-0.08,2.1-0.09
				c0.35-0.01,0.67,0,1.01,0c0.29,0,0.58,0,0.85,0.01c3.5,0.09,6.24,0.6,8.06,0.95c0,0,0,0,0,0c2.72,0.62,6.49,1.51,10.01,3.25
				c2.32,1.28,4.11,2.68,5.41,3.89c0.31,0.32,0.63,0.61,0.91,0.95c0.84,1.04,2.6,3.49,5.8,6.28c1.21,1.06,2.27,1.86,2.99,2.37
				c0,0,0,0,0,0c2.06,1.58,3.91,2.64,6.4,2.99c0.92,0.13,3.66,0.49,6.36-0.79c5.37-2.53,6.55-9.65,6.72-10.71
				c2.08-12.54-12.41-25.35-21.33-30.97c-4.51-2.84-12.62-7-24.34-8.23c-4.75-0.65-12.59-1.13-21.74,1.24
				c-3.19,0.83-10.71,2.89-18.42,8.34c-8.83,5.72-13.45,13.27-14.53,15.13c-4.74,8.16-5.54,15.91-5.94,20.21
				c-0.28,2.54-0.99,10.96,2.18,21.21c0.16,0.51,0.31,0.99,0.46,1.43c0.05,0.14,0.1,0.29,0.15,0.43c0.27,0.79,0.53,1.47,0.74,2.01
				c0.27,0.68,0.54,1.34,0.83,1.98c4.26,9.66,10.23,15.56,12.44,17.61c8.34,7.73,17.23,10.75,28.25,14.5
				c5.58,1.9,10.35,3.08,13.72,3.81h0c0.5,0.14,1.04,0.3,1.63,0.48c1.77,0.57,3.94,1.39,6.29,2.6c4.21,2.16,10.62,5.45,14.33,12.43
				c0.67,1.26,5.68,11.05,0.97,20.99c-3.91,8.25-11.92,11.15-14.72,12.16c-4.32,1.56-8.81,1.6-12.56,1.71
				c-1.67,0.02-3.79,0.03-6.27-0.2c-0.27-0.03-0.56-0.06-0.84-0.1c-0.32-0.04-0.65-0.07-0.98-0.12c-1.31-0.22-10.33-1.9-19.36-8.21
				c-1.93-1.38-3.52-2.75-4.8-4.03c-0.66-0.71-1.57-1.74-1.62-1.8c-0.88-1.01-1.34-1.54-1.91-2.28c-0.22-0.29-0.42-0.57-0.62-0.84
				c-0.33-0.48-0.54-0.79-1.01-1.35c-0.02-0.02-0.03-0.04-0.05-0.06c-0.38-0.47-0.79-0.91-1.27-1.33c-0.03-0.03-0.07-0.07-0.09-0.09
				c0,0,0,0.01,0.01,0.02c-0.31-0.26-0.63-0.52-1.02-0.78c-0.69-0.46-4.04-2.71-8.14-2.19c-6.59,0.84-9.78,8.15-10.55,9.91
				c-1.85,4.22-1.67,8.05-1.47,9.82c0.12,1.08,0.6,4.53,3.21,8.76c4.09,6.64,13.7,15.65,28.11,21.17
				c12.15,4.65,22.45,4.8,28.44,4.82c4.12,0.02,9.23,0.01,15.72-1.6c8.19-2.03,14.32-5.56,18.14-8.18
				c3.22-2.52,7.64-6.56,11.57-12.51c4.63-7,6.64-13.67,7.57-17.97C680.53,216.68,682.97,203.17,677.61,188.26z"/>
			<path class="st0" d="M474.72,73.76h-81.01c-7.21,0-13.06,5.85-13.06,13.06c0,7.21,5.85,13.06,13.06,13.06h27.75
				c-0.2,0.9-0.31,1.83-0.31,2.79v148.82c0,7.21,5.85,13.06,13.06,13.06c7.21,0,13.06-5.85,13.06-13.06V102.67
				c0-0.96-0.11-1.89-0.31-2.79h27.75c7.21,0,13.06-5.85,13.06-13.06C487.78,79.6,481.93,73.76,474.72,73.76z"/>
		</g>
		<g>
			<linearGradient id="SVGID_1_" gradientUnits="userSpaceOnUse" x1="267.145" y1="55.5784" x2="267.6081" y2="55.5784">
				<stop  offset="0.2102" style="stop-color:#1C2747"/>
				<stop  offset="0.818" style="stop-color:#259A38"/>
			</linearGradient>
			<path class="st1" d="M267.48,55.62c-0.67-0.29-0.17-0.07,0.09,0.04c0.01,0,0.02,0.01,0.04,0.01
				C267.57,55.66,267.52,55.64,267.48,55.62z"/>
			<linearGradient id="SVGID_2_" gradientUnits="userSpaceOnUse" x1="267.6081" y1="55.6953" x2="267.6977" y2="55.6953">
				<stop  offset="0.2102" style="stop-color:#1C2747"/>
				<stop  offset="0.818" style="stop-color:#259A38"/>
			</linearGradient>
			<path class="st2" d="M267.7,55.71c-0.03-0.01-0.06-0.02-0.09-0.04c0.01,0,0.01,0.01,0.02,0.01
				C267.66,55.7,267.68,55.71,267.7,55.71z"/>
			<linearGradient id="SVGID_3_" gradientUnits="userSpaceOnUse" x1="142.5854" y1="282.7308" x2="143.0475" y2="282.7308">
				<stop  offset="0.2102" style="stop-color:#1C2747"/>
				<stop  offset="0.818" style="stop-color:#259A38"/>
			</linearGradient>
			<path class="st3" d="M142.71,282.69c0.67,0.29,0.17,0.07-0.09-0.04c-0.01,0-0.02-0.01-0.04-0.01
				C142.63,282.65,142.67,282.67,142.71,282.69z"/>
			<linearGradient id="SVGID_4_" gradientUnits="userSpaceOnUse" x1="142.4946" y1="282.6139" x2="142.5854" y2="282.6139">
				<stop  offset="0.2102" style="stop-color:#1C2747"/>
				<stop  offset="0.818" style="stop-color:#259A38"/>
			</linearGradient>
			<path class="st4" d="M142.49,282.6c0.03,0.01,0.06,0.02,0.09,0.04c-0.01,0-0.01-0.01-0.02-0.01
				C142.53,282.61,142.51,282.6,142.49,282.6z"/>
			<linearGradient id="SVGID_5_" gradientUnits="userSpaceOnUse" x1="210.7364" y1="291.6062" x2="211.2212" y2="291.6062">
				<stop  offset="0.2102" style="stop-color:#1C2747"/>
				<stop  offset="0.818" style="stop-color:#259A38"/>
			</linearGradient>
			<path class="st5" d="M211.22,291.57c-0.29,0.04-0.86,0.12-0.11,0.02C211.15,291.58,211.18,291.58,211.22,291.57z"/>
			<linearGradient id="SVGID_6_" gradientUnits="userSpaceOnUse" x1="198.8359" y1="46.7451" x2="198.9673" y2="46.7451">
				<stop  offset="0.2102" style="stop-color:#1C2747"/>
				<stop  offset="0.818" style="stop-color:#259A38"/>
			</linearGradient>
			<path class="st6" d="M198.97,46.74c-0.04,0-0.09,0.01-0.13,0.01C198.86,46.75,198.91,46.75,198.97,46.74z"/>
			<linearGradient id="SVGID_7_" gradientUnits="userSpaceOnUse" x1="211.2251" y1="291.564" x2="211.3564" y2="291.564">
				<stop  offset="0.2102" style="stop-color:#1C2747"/>
				<stop  offset="0.818" style="stop-color:#259A38"/>
			</linearGradient>
			<path class="st7" d="M211.23,291.57c0.04,0,0.09-0.01,0.13-0.01C211.33,291.56,211.28,291.56,211.23,291.57z"/>
			<linearGradient id="SVGID_8_" gradientUnits="userSpaceOnUse" x1="198.9714" y1="46.7029" x2="199.456" y2="46.7029">
				<stop  offset="0.2102" style="stop-color:#1C2747"/>
				<stop  offset="0.818" style="stop-color:#259A38"/>
			</linearGradient>
			<path class="st8" d="M198.97,46.74c0.29-0.04,0.86-0.12,0.11-0.02C199.05,46.73,199.01,46.73,198.97,46.74z"/>
			<linearGradient id="SVGID_9_" gradientUnits="userSpaceOnUse" x1="76.6361" y1="169.1545" x2="333.5563" y2="169.1545">
				<stop  offset="0.2102" style="stop-color:#1C2747"/>
				<stop  offset="0.818" style="stop-color:#259A38"/>
			</linearGradient>
			<path class="st9" d="M244.34,282.53c0.41-0.18,0.82-0.35,1.22-0.54c0.73-0.32,13.62-6.87,19.68-10.93
				c6.76-4.53,22.53-17.75,38.98-39.37c-0.71,0.58-1.42,1.17-2.15,1.74c-5.78,4.5-11.87,8.77-18.36,12.18
				c-5.76,3.03-11.89,5.31-18.24,6.72c-0.02,0.02-0.06,0.06-0.08,0.07c-1.56,0.5-3.81,1.1-6.56,1.37
				c-2.87,0.29-8.35,0.85-14.32-1.84c-8.1-3.65-11.46-10.73-11.97-11.84c-2.21-4.84-2.23-9.26-2.08-11.52
				c0.03-6.18,0.05-12.36,0.08-18.54c0.03-7.29,0.06-14.58,0.1-21.87c0.09-19.83,0.11-19.29,0.1-23.54c0-4.34-0.01-1.59-0.11-23.21
				c-0.08-16.62-0.05-15.18-0.09-21.23c-0.02-2.51,0.04-5.02-0.03-7.53c-0.18-6.66-0.67-9.47,0.09-14.31
				c0.24-1.57,0.46-2.92,1.06-4.68c1.65-4.87,4.54-7.96,5.83-9.21c0.34-0.33,1.84-1.76,4.14-3.2c4.44-2.76,8.47-3.4,9.32-3.52
				c1.95-0.28,3.53-0.25,5.2-0.21c2.7,0.06,4.06,0.36,4.45,0.45c1.85,0.42,3.35,0.77,4.43,2.08c0.81,0.98,1.04,2.09,1.12,2.78
				c-0.07,3.45-1.06,4.82-2.01,5.43c-2.06,1.31-4.25-0.79-9.45-0.21c-2.35,0.26-4.08,0.94-4.8,1.24c-2.54,1.08-4.29,2.58-5.33,3.62
				c-0.64,0.69-1.32,1.55-1.94,2.58c-1.84,3.08-2.19,6.12-2.24,7.92c0.02,2.15,0.03,4.3,0.05,6.44c0.02,5.11,0.05,10.21,0.07,15.32
				c0.1,4.78,0.24,12.34,0.26,21.71c0.02,5.76-0.03,7.42-0.1,23.54c-0.03,7.75-0.07,15.49-0.1,23.24
				c-0.03,7.07-0.06,14.15-0.09,21.22c-0.02,3.8-0.03,7.61-0.05,11.41c-0.1,1.42-0.33,7.14,3.72,11.84
				c4.11,4.77,10.38,5.79,14.49,5.44c0.61-0.09,1.22-0.2,1.83-0.31c0.34-0.08,0.8-0.18,1.53-0.3c2.43-0.5,4.84-1.11,7.2-1.88
				c1.01-0.33,2-0.67,2.99-1.05c0.43-0.16,0.85-0.33,1.27-0.5c0.15-0.06,0.29-0.12,0.43-0.18c1.58-0.7,3.15-1.43,4.69-2.24
				c2.86-1.5,5.62-3.19,8.31-4.96c1.3-0.86,2.58-1.73,3.86-2.61c0.92-0.64,1.84-1.29,2.74-1.95c0.41-0.3,0.82-0.61,1.23-0.92
				c0.17-0.13,0.34-0.25,0.5-0.38c2.94-2.31,5.78-4.74,8.49-7.31c3.27-3.1,6.35-6.4,9.21-9.88c0.7-0.86,1.4-1.72,2.08-2.59
				c0.03-0.04,0.05-0.06,0.07-0.09c0.2-0.26,0.39-0.52,0.59-0.78c0.41-0.55,0.82-1.11,1.22-1.67c1.99-2.78,3.83-5.66,5.5-8.64
				c0.97-1.73,1.88-3.48,2.73-5.27c0.5-1.05,0.97-2.1,1.44-3.16c0-0.01,0.01-0.02,0.01-0.02c0.1-0.22,0.19-0.45,0.28-0.68
				c0.2-0.5,0.4-0.99,0.59-1.49c1.47-3.83,2.69-7.77,3.63-11.77c0.41-1.73,0.76-3.47,1.07-5.22c0.15-0.88,0.3-1.77,0.43-2.65
				c0.02-0.14,0.05-0.39,0.07-0.59c0.05-0.46,0.03-0.29,0,0c-0.01,0.12-0.03,0.28-0.05,0.5c0.04-0.37,0.09-0.73,0.14-1.09
				c0.31-2.61,0.52-5.22,0.66-7.85c0.19-3.65,0.26-7.29,0.12-10.94c-0.07-1.9-0.19-3.8-0.36-5.7c-0.08-0.91-0.17-1.81-0.28-2.72
				c-0.05-0.46-0.11-0.92-0.17-1.37c0-0.03-0.01-0.05-0.01-0.08c0-0.02-0.01-0.04-0.01-0.07c-0.63-4.46-1.52-8.89-2.77-13.22
				c-0.35-1.21-0.73-2.41-1.14-3.6c-0.35-1.02-0.72-2.03-1.1-3.03c-0.24-0.62-0.49-1.25-0.74-1.87c-0.13-0.31-0.26-0.63-0.39-0.94
				c0.06,0.16,0.11,0.28,0.15,0.39c0.13,0.33,0.23,0.57,0,0c-0.06-0.16-0.13-0.33-0.18-0.43c-2.98-6.86-6.67-13.42-11.02-19.5
				c-0.47-0.66-0.96-1.32-1.45-1.97c-0.03-0.04-0.06-0.08-0.09-0.12c-0.14-0.18-0.28-0.35-0.42-0.53c-0.41-0.52-0.83-1.04-1.25-1.55
				c-2.27-2.76-4.67-5.42-7.18-7.96c-1.98-2.01-4.04-3.95-6.17-5.8c-0.94-0.82-1.9-1.62-2.87-2.4c-0.58-0.47-1.17-0.93-1.76-1.4
				c-0.09-0.07-0.17-0.13-0.26-0.2c-0.33-0.25-0.67-0.51-1.01-0.76c-4.89-3.64-10.04-6.93-15.41-9.8c-2.85-1.52-5.75-2.93-8.7-4.23
				c-0.42-0.18-0.84-0.37-1.26-0.55c-0.02-0.01-0.04-0.01-0.06-0.02c-0.18-0.07-0.36-0.15-0.53-0.22c-0.91-0.37-1.82-0.74-2.73-1.09
				c-1.67-0.65-3.35-1.26-5.04-1.83c-5.52-1.88-11.18-3.36-16.89-4.5c-2.1-0.42-4.2-0.78-6.31-1.1c-0.52-0.08-1.03-0.15-1.55-0.22
				c-0.58-0.07-1.16-0.15-1.75-0.21c-3.17-0.37-6.36-0.62-9.55-0.77c-4.02-0.18-8.05-0.19-12.08-0.02
				c-2.21,0.09-4.43,0.24-6.63,0.44c-1.15,0.1-2.31,0.22-3.46,0.35c-0.49,0.06-0.99,0.12-1.48,0.18c-0.19,0.02-0.39,0.06-0.59,0.08
				c-5.83,0.84-11.62,1.99-17.3,3.56c-3.67,1.02-7.31,2.19-10.88,3.52c-1.4,0.52-2.79,1.06-4.17,1.63
				c-0.16,0.06-0.45,0.19-0.65,0.28c-0.34,0.15-0.23,0.1,0,0c0.13-0.06,0.32-0.14,0.61-0.26c-0.24,0.1-0.48,0.21-0.73,0.31
				c-0.41,0.18-0.82,0.35-1.22,0.54c-0.73,0.32-13.62,6.87-19.68,10.93c-6.76,4.53-22.53,17.75-38.98,39.37
				c0.71-0.58,1.42-1.17,2.15-1.74c5.78-4.49,11.87-8.77,18.36-12.18c5.76-3.03,11.89-5.31,18.24-6.72
				c0.02-0.02,0.06-0.06,0.08-0.07c1.56-0.5,3.81-1.09,6.56-1.37c2.87-0.29,8.35-0.85,14.32,1.84c8.1,3.65,11.46,10.73,11.97,11.84
				c2.21,4.84,2.23,9.26,2.08,11.52c-0.03,6.18-0.05,12.36-0.08,18.54c-0.03,7.29-0.06,14.58-0.1,21.87
				c-0.09,19.83-0.11,19.29-0.1,23.54c0,4.34,0.01,1.59,0.11,23.21c0.08,16.62,0.05,15.18,0.09,21.23c0.02,2.51-0.04,5.02,0.03,7.53
				c0.18,6.66,0.67,9.47-0.09,14.31c-0.24,1.57-0.46,2.92-1.06,4.68c-1.65,4.87-4.54,7.96-5.83,9.21c-0.34,0.33-1.84,1.76-4.14,3.2
				c-4.44,2.76-8.47,3.4-9.32,3.52c-1.95,0.28-3.53,0.25-5.2,0.21c-2.7-0.06-4.06-0.36-4.45-0.45c-1.85-0.42-3.35-0.77-4.43-2.08
				c-0.81-0.98-1.04-2.09-1.12-2.78c0.07-3.45,1.06-4.82,2.01-5.43c2.06-1.31,4.25,0.79,9.44,0.21c2.35-0.26,4.08-0.94,4.8-1.24
				c2.54-1.08,4.29-2.58,5.33-3.62c0.64-0.69,1.32-1.55,1.94-2.58c1.84-3.08,2.19-6.12,2.24-7.92c-0.02-2.15-0.03-4.3-0.05-6.44
				c-0.02-5.11-0.04-10.21-0.07-15.32c-0.1-4.78-0.24-12.34-0.26-21.71c-0.02-5.76,0.03-7.42,0.1-23.54
				c0.03-7.75,0.07-15.49,0.1-23.24c0.03-7.07,0.06-14.15,0.09-21.22c0.02-3.8,0.03-7.61,0.05-11.41c0.1-1.42,0.33-7.14-3.72-11.84
				c-4.11-4.77-10.38-5.79-14.49-5.44c-0.61,0.09-1.22,0.2-1.83,0.31c-0.34,0.08-0.8,0.18-1.54,0.3c-2.43,0.5-4.84,1.11-7.2,1.88
				c-1.01,0.33-2,0.67-2.99,1.05c-0.43,0.16-0.85,0.33-1.27,0.5c-0.14,0.06-0.29,0.12-0.43,0.18c-1.58,0.7-3.15,1.43-4.69,2.24
				c-2.86,1.5-5.62,3.18-8.31,4.96c-1.3,0.86-2.58,1.73-3.86,2.61c-0.92,0.64-1.84,1.29-2.74,1.95c-0.41,0.3-0.82,0.61-1.23,0.92
				c-0.17,0.13-0.34,0.25-0.5,0.38c-2.94,2.31-5.78,4.74-8.49,7.31c-3.27,3.1-6.35,6.4-9.21,9.88c-0.7,0.86-1.4,1.72-2.08,2.59
				c-0.03,0.04-0.05,0.06-0.07,0.09c-0.2,0.26-0.39,0.52-0.59,0.78c-0.41,0.55-0.82,1.11-1.22,1.67c-1.99,2.78-3.83,5.66-5.5,8.64
				c-0.97,1.73-1.88,3.48-2.73,5.27c-0.5,1.05-0.97,2.1-1.44,3.16c0,0.01-0.01,0.02-0.01,0.02c-0.1,0.22-0.19,0.45-0.28,0.68
				c-0.2,0.5-0.4,0.99-0.59,1.49c-1.47,3.83-2.69,7.77-3.63,11.77c-0.41,1.73-0.76,3.47-1.07,5.22c-0.15,0.88-0.3,1.77-0.43,2.65
				c-0.02,0.14-0.05,0.4-0.07,0.59c-0.05,0.45-0.03,0.29,0,0c0.01-0.12,0.03-0.28,0.06-0.5c-0.04,0.37-0.09,0.73-0.14,1.09
				c-0.31,2.61-0.52,5.22-0.66,7.85c-0.19,3.65-0.26,7.29-0.12,10.94c0.07,1.9,0.19,3.8,0.36,5.7c0.08,0.91,0.17,1.81,0.28,2.72
				c0.05,0.46,0.11,0.92,0.17,1.37c0,0.03,0.01,0.05,0.01,0.08c0,0.02,0.01,0.04,0.01,0.07c0.63,4.46,1.52,8.89,2.77,13.22
				c0.35,1.21,0.73,2.41,1.14,3.6c0.35,1.02,0.72,2.03,1.1,3.03c0.24,0.62,0.49,1.25,0.74,1.87c0.13,0.31,0.26,0.63,0.39,0.94
				c-0.06-0.16-0.11-0.28-0.15-0.39c-0.13-0.32-0.23-0.57,0,0c0.06,0.16,0.13,0.33,0.18,0.43c2.98,6.86,6.67,13.42,11.02,19.5
				c0.47,0.66,0.96,1.32,1.45,1.97c0.03,0.04,0.06,0.08,0.09,0.12c0.14,0.18,0.28,0.36,0.42,0.53c0.41,0.52,0.83,1.04,1.25,1.55
				c2.27,2.76,4.67,5.42,7.18,7.96c1.98,2.01,4.04,3.95,6.17,5.8c0.94,0.82,1.9,1.62,2.87,2.4c0.58,0.47,1.17,0.93,1.76,1.4
				c0.09,0.07,0.18,0.13,0.26,0.2c0.33,0.25,0.67,0.51,1.01,0.76c4.89,3.64,10.04,6.93,15.41,9.8c2.85,1.52,5.75,2.93,8.7,4.23
				c0.42,0.18,0.84,0.37,1.26,0.55c0.02,0.01,0.04,0.01,0.06,0.02c0.18,0.07,0.36,0.15,0.53,0.22c0.91,0.37,1.82,0.74,2.73,1.09
				c1.67,0.65,3.35,1.26,5.04,1.83c5.52,1.88,11.18,3.36,16.89,4.5c2.1,0.42,4.2,0.78,6.31,1.1c0.52,0.08,1.03,0.15,1.55,0.22
				c0.58,0.07,1.16,0.15,1.75,0.21c3.17,0.37,6.36,0.62,9.55,0.77c4.02,0.18,8.05,0.19,12.08,0.02c2.21-0.09,4.43-0.24,6.63-0.44
				c1.15-0.1,2.31-0.22,3.46-0.35c0.49-0.06,0.99-0.12,1.48-0.18c0.19-0.02,0.39-0.06,0.59-0.08c5.83-0.84,11.62-1.99,17.3-3.56
				c3.67-1.02,7.31-2.19,10.88-3.52c1.4-0.52,2.79-1.06,4.17-1.63c0.16-0.07,0.47-0.2,0.67-0.29c0.3-0.13,0.21-0.09,0,0
				c-0.13,0.06-0.33,0.14-0.63,0.27C243.86,282.74,244.1,282.64,244.34,282.53z"/>
		</g>
	</g>
</g>
</svg>
