<?xml version="1.0" encoding="utf-8"?>
<!-- Generator: Adobe Illustrator 24.0.2, SVG Export Plug-In . SVG Version: 6.00 Build 0)  -->
<svg version="1.1" xmlns="http://www.w3.org/2000/svg" xmlns:xlink="http://www.w3.org/1999/xlink" x="0px" y="0px"
	 viewBox="0 0 373.79 338.31" style="enable-background:new 0 0 373.79 338.31;" xml:space="preserve">
<style type="text/css">
	.st0{fill:#1C2747;}
	.st1{fill:url(#SVGID_1_);}
	.st2{fill:url(#SVGID_2_);}
	.st3{fill:url(#SVGID_3_);}
	.st4{fill:url(#SVGID_4_);}
	.st5{fill:url(#SVGID_5_);}
	.st6{fill:url(#SVGID_6_);}
	.st7{fill:url(#SVGID_7_);}
	.st8{fill:url(#SVGID_8_);}
	.st9{fill:url(#SVGID_9_);}
	.st10{fill:url(#SVGID_10_);}
	.st11{fill:url(#SVGID_11_);}
	.st12{fill:url(#SVGID_12_);}
	.st13{fill:url(#SVGID_13_);}
	.st14{fill:url(#SVGID_14_);}
	.st15{fill:url(#SVGID_15_);}
	.st16{fill:url(#SVGID_16_);}
	.st17{fill:url(#SVGID_17_);}
	.st18{fill:url(#SVGID_18_);}
	.st19{fill:url(#SVGID_19_);}
	.st20{fill:url(#SVGID_20_);}
	.st21{fill:url(#SVGID_21_);}
	.st22{fill:url(#SVGID_22_);}
	.st23{fill:url(#SVGID_23_);}
	.st24{fill:url(#SVGID_24_);}
	.st25{fill:url(#SVGID_25_);}
	.st26{fill:url(#SVGID_26_);}
	.st27{fill:url(#SVGID_27_);}
</style>
<g id="prancheta_2">
	<g id="depois">
	</g>
	<g id="antes_1_">
	</g>
	<g id="textos_e_elementos">
	</g>
</g>
<g id="prancheta_1">
	<g id="Textos">
	</g>
	<g id="antes">
	</g>
	<g id="depoiss">
		<g>
			<linearGradient id="SVGID_1_" gradientUnits="userSpaceOnUse" x1="246.8266" y1="55.6953" x2="246.9167" y2="55.6953">
				<stop  offset="0.2102" style="stop-color:#1C2747"/>
				<stop  offset="0.818" style="stop-color:#259A38"/>
			</linearGradient>
			<path class="st1" d="M246.92,55.71c-0.03-0.01-0.06-0.02-0.09-0.04c0.01,0,0.01,0.01,0.02,0.01
				C246.88,55.7,246.9,55.71,246.92,55.71z"/>
			<linearGradient id="SVGID_2_" gradientUnits="userSpaceOnUse" x1="246.3639" y1="55.5784" x2="246.8266" y2="55.5784">
				<stop  offset="0.2102" style="stop-color:#1C2747"/>
				<stop  offset="0.818" style="stop-color:#259A38"/>
			</linearGradient>
			<path class="st2" d="M246.7,55.62c-0.67-0.29-0.17-0.07,0.09,0.04c0.01,0,0.02,0.01,0.04,0.01
				C246.78,55.66,246.74,55.64,246.7,55.62z"/>
			<linearGradient id="SVGID_3_" gradientUnits="userSpaceOnUse" x1="121.8041" y1="282.7308" x2="122.2663" y2="282.7308">
				<stop  offset="0.2102" style="stop-color:#1C2747"/>
				<stop  offset="0.818" style="stop-color:#259A38"/>
			</linearGradient>
			<path class="st3" d="M121.93,282.69c0.67,0.29,0.17,0.07-0.09-0.04c-0.01,0-0.02-0.01-0.04-0.01
				C121.85,282.65,121.89,282.67,121.93,282.69z"/>
			<linearGradient id="SVGID_4_" gradientUnits="userSpaceOnUse" x1="121.7136" y1="282.6139" x2="121.8041" y2="282.6139">
				<stop  offset="0.2102" style="stop-color:#1C2747"/>
				<stop  offset="0.818" style="stop-color:#259A38"/>
			</linearGradient>
			<path class="st4" d="M121.71,282.6c0.03,0.01,0.06,0.02,0.09,0.04c-0.01,0-0.01-0.01-0.02-0.01
				C121.75,282.61,121.73,282.6,121.71,282.6z"/>
			<linearGradient id="SVGID_5_" gradientUnits="userSpaceOnUse" x1="190.444" y1="291.564" x2="190.5754" y2="291.564">
				<stop  offset="0.2102" style="stop-color:#1C2747"/>
				<stop  offset="0.818" style="stop-color:#259A38"/>
			</linearGradient>
			<path class="st5" d="M190.44,291.57c0.04,0,0.09-0.01,0.13-0.01C190.55,291.56,190.5,291.56,190.44,291.57z"/>
			<linearGradient id="SVGID_6_" gradientUnits="userSpaceOnUse" x1="55.855" y1="169.1545" x2="312.7752" y2="169.1545">
				<stop  offset="0.2102" style="stop-color:#1C2747"/>
				<stop  offset="0.818" style="stop-color:#259A38"/>
			</linearGradient>
			<path class="st6" d="M223.56,282.53c0.41-0.18,0.82-0.35,1.22-0.54c0.73-0.32,13.63-6.87,19.68-10.93
				c6.76-4.53,22.53-17.75,38.98-39.37c-0.71,0.58-1.42,1.17-2.15,1.74c-5.78,4.5-11.87,8.77-18.36,12.18
				c-5.76,3.03-11.89,5.31-18.24,6.72c-0.02,0.02-0.06,0.06-0.08,0.07c-1.56,0.5-3.81,1.1-6.56,1.37
				c-2.87,0.29-8.35,0.85-14.32-1.84c-8.1-3.65-11.46-10.73-11.97-11.84c-2.21-4.84-2.23-9.26-2.08-11.52
				c0.03-6.18,0.05-12.36,0.08-18.54c0.03-7.29,0.06-14.58,0.1-21.87c0.09-19.83,0.11-19.29,0.1-23.54c0-4.34-0.01-1.59-0.11-23.21
				c-0.08-16.62-0.05-15.18-0.09-21.23c-0.02-2.51,0.04-5.02-0.03-7.53c-0.18-6.66-0.67-9.47,0.09-14.31
				c0.24-1.57,0.46-2.92,1.06-4.68c1.65-4.87,4.54-7.96,5.83-9.21c0.34-0.33,1.84-1.76,4.14-3.2c4.44-2.76,8.47-3.4,9.32-3.52
				c1.95-0.28,3.53-0.25,5.2-0.21c2.7,0.06,4.06,0.36,4.45,0.45c1.85,0.42,3.35,0.77,4.43,2.08c0.81,0.98,1.04,2.09,1.12,2.78
				c-0.07,3.45-1.06,4.82-2.01,5.43c-2.06,1.31-4.25-0.79-9.44-0.21c-2.35,0.26-4.08,0.94-4.8,1.24c-2.54,1.08-4.29,2.58-5.33,3.62
				c-0.64,0.69-1.32,1.55-1.94,2.58c-1.84,3.08-2.19,6.12-2.24,7.92c0.02,2.15,0.03,4.3,0.05,6.44c0.02,5.11,0.04,10.21,0.07,15.32
				c0.1,4.78,0.24,12.34,0.26,21.71c0.02,5.76-0.03,7.42-0.1,23.54c-0.03,7.75-0.07,15.49-0.1,23.24
				c-0.03,7.07-0.06,14.15-0.09,21.22c-0.02,3.8-0.03,7.61-0.05,11.41c-0.1,1.42-0.33,7.14,3.72,11.84
				c4.11,4.77,10.38,5.79,14.49,5.44c0.61-0.09,1.22-0.2,1.83-0.31c0.34-0.08,0.8-0.18,1.53-0.3c2.43-0.5,4.84-1.11,7.2-1.88
				c1.01-0.33,2-0.67,2.99-1.05c0.43-0.16,0.85-0.33,1.27-0.5c0.15-0.06,0.29-0.12,0.43-0.18c1.58-0.7,3.15-1.43,4.69-2.24
				c2.86-1.5,5.62-3.19,8.31-4.96c1.3-0.86,2.58-1.73,3.86-2.61c0.92-0.64,1.84-1.29,2.74-1.95c0.41-0.3,0.82-0.61,1.23-0.92
				c0.17-0.13,0.34-0.25,0.5-0.38c2.94-2.31,5.78-4.74,8.49-7.31c3.27-3.1,6.35-6.4,9.21-9.88c0.7-0.86,1.4-1.72,2.08-2.59
				c0.03-0.04,0.05-0.06,0.07-0.09c0,0,0,0,0,0c0.2-0.26,0.39-0.52,0.59-0.78c0.41-0.55,0.82-1.11,1.22-1.67
				c1.99-2.78,3.83-5.66,5.5-8.64c0.97-1.73,1.88-3.48,2.73-5.27c0.5-1.05,0.97-2.1,1.44-3.16c0-0.01,0.01-0.02,0.01-0.02
				c0.1-0.22,0.19-0.45,0.28-0.68c0.2-0.5,0.4-0.99,0.59-1.49c1.47-3.83,2.69-7.77,3.63-11.77c0.41-1.73,0.76-3.47,1.07-5.22
				c0.15-0.88,0.3-1.77,0.43-2.65c0.02-0.14,0.05-0.39,0.07-0.59c0.05-0.46,0.03-0.29,0,0c-0.01,0.12-0.03,0.28-0.05,0.5
				c0.04-0.37,0.09-0.73,0.14-1.09c0.31-2.61,0.52-5.22,0.66-7.85c0.19-3.65,0.26-7.29,0.12-10.94c-0.07-1.9-0.19-3.8-0.36-5.7
				c-0.08-0.91-0.17-1.81-0.28-2.72c-0.05-0.46-0.11-0.92-0.17-1.37c0-0.03-0.01-0.05-0.01-0.08c0-0.02-0.01-0.04-0.01-0.07
				c-0.63-4.46-1.52-8.89-2.77-13.22c-0.35-1.21-0.73-2.41-1.14-3.6c-0.35-1.02-0.72-2.03-1.1-3.03c-0.24-0.62-0.49-1.25-0.74-1.87
				c-0.13-0.31-0.26-0.63-0.39-0.94c0.06,0.16,0.11,0.28,0.15,0.39c0.13,0.33,0.23,0.57,0,0c-0.06-0.16-0.13-0.33-0.18-0.43
				c-2.98-6.86-6.67-13.42-11.02-19.5c-0.47-0.66-0.96-1.32-1.45-1.97c-0.03-0.04-0.06-0.08-0.09-0.12
				c-0.14-0.18-0.28-0.35-0.42-0.53c-0.41-0.52-0.83-1.04-1.25-1.55c-2.27-2.76-4.67-5.42-7.18-7.96c-1.98-2.01-4.04-3.95-6.17-5.8
				c-0.94-0.82-1.9-1.62-2.87-2.4c-0.58-0.47-1.17-0.93-1.76-1.4c-0.09-0.07-0.18-0.13-0.26-0.2c-0.33-0.25-0.67-0.51-1.01-0.76
				c-4.89-3.64-10.04-6.93-15.41-9.8c-2.85-1.52-5.75-2.93-8.7-4.23c-0.42-0.18-0.84-0.37-1.26-0.55c-0.02-0.01-0.04-0.02-0.06-0.02
				c-0.18-0.07-0.36-0.15-0.53-0.22c-0.91-0.37-1.82-0.74-2.73-1.09c-1.67-0.65-3.35-1.26-5.04-1.83
				c-5.52-1.88-11.18-3.36-16.89-4.5c-2.1-0.42-4.2-0.78-6.31-1.1c-0.52-0.08-1.03-0.15-1.55-0.22c-0.58-0.07-1.16-0.15-1.75-0.21
				c-3.17-0.37-6.36-0.62-9.55-0.77c-4.02-0.18-8.05-0.19-12.08-0.02c-2.21,0.09-4.43,0.24-6.63,0.44c-1.15,0.1-2.31,0.22-3.46,0.35
				c-0.49,0.06-0.99,0.12-1.48,0.18c-0.19,0.02-0.39,0.06-0.59,0.08c-5.83,0.84-11.62,1.99-17.3,3.56
				c-3.67,1.02-7.31,2.19-10.88,3.52c-1.4,0.52-2.79,1.06-4.17,1.63c-0.16,0.06-0.44,0.19-0.65,0.28c-0.34,0.15-0.23,0.1,0,0
				c0.13-0.06,0.32-0.14,0.61-0.26c-0.24,0.1-0.48,0.21-0.73,0.31c-0.41,0.18-0.82,0.35-1.22,0.54
				c-0.73,0.32-13.63,6.87-19.68,10.93c-6.76,4.53-22.53,17.75-38.98,39.37c0.71-0.58,1.42-1.17,2.15-1.74
				c5.78-4.49,11.87-8.77,18.36-12.18c5.76-3.03,11.89-5.31,18.24-6.72c0.02-0.02,0.06-0.06,0.08-0.07c1.56-0.5,3.81-1.09,6.56-1.37
				c2.87-0.29,8.35-0.85,14.32,1.84c8.1,3.65,11.46,10.73,11.97,11.84c2.21,4.84,2.23,9.26,2.08,11.52
				c-0.03,6.18-0.05,12.36-0.08,18.54c-0.03,7.29-0.06,14.58-0.1,21.87c-0.09,19.83-0.1,19.29-0.1,23.54
				c0,4.34,0.01,1.59,0.11,23.21c0.08,16.62,0.05,15.18,0.09,21.23c0.02,2.51-0.04,5.02,0.03,7.53c0.18,6.66,0.67,9.47-0.09,14.31
				c-0.24,1.57-0.46,2.92-1.06,4.68c-1.65,4.87-4.54,7.96-5.83,9.21c-0.34,0.33-1.84,1.76-4.14,3.2c-4.44,2.76-8.47,3.4-9.32,3.52
				c-1.95,0.28-3.53,0.25-5.2,0.21c-2.7-0.06-4.06-0.36-4.45-0.45c-1.85-0.42-3.35-0.77-4.43-2.08c-0.81-0.98-1.04-2.09-1.12-2.78
				c0.07-3.45,1.06-4.82,2.01-5.43c2.06-1.31,4.25,0.79,9.44,0.21c2.35-0.26,4.08-0.94,4.8-1.24c2.54-1.08,4.29-2.58,5.33-3.62
				c0.64-0.69,1.32-1.55,1.94-2.58c1.84-3.08,2.19-6.12,2.24-7.92c-0.02-2.15-0.03-4.3-0.05-6.44c-0.02-5.11-0.04-10.21-0.07-15.32
				c-0.1-4.78-0.24-12.34-0.26-21.71c-0.02-5.76,0.03-7.42,0.1-23.54c0.03-7.75,0.07-15.49,0.1-23.24
				c0.03-7.07,0.06-14.15,0.09-21.22c0.02-3.8,0.03-7.61,0.05-11.41c0.1-1.42,0.33-7.14-3.72-11.84
				c-4.11-4.77-10.38-5.79-14.49-5.44c-0.61,0.09-1.22,0.2-1.83,0.31c-0.34,0.08-0.8,0.18-1.54,0.3c-2.43,0.5-4.84,1.11-7.2,1.88
				c-1.01,0.33-2,0.67-2.99,1.05c-0.43,0.16-0.85,0.33-1.27,0.5c-0.14,0.06-0.29,0.12-0.43,0.18c-1.58,0.7-3.15,1.43-4.69,2.24
				c-2.86,1.5-5.62,3.18-8.31,4.96c-1.3,0.86-2.58,1.73-3.86,2.61c-0.92,0.64-1.84,1.29-2.74,1.95c-0.41,0.3-0.82,0.61-1.23,0.92
				c-0.17,0.13-0.34,0.25-0.5,0.38c-2.94,2.31-5.78,4.74-8.49,7.31c-3.27,3.1-6.35,6.4-9.21,9.88c-0.7,0.86-1.4,1.72-2.08,2.59
				c-0.03,0.04-0.05,0.06-0.07,0.09c0,0,0,0,0,0c-0.2,0.26-0.39,0.52-0.59,0.78c-0.41,0.55-0.82,1.11-1.22,1.67
				c-1.99,2.78-3.83,5.66-5.5,8.64c-0.97,1.73-1.88,3.48-2.73,5.27c-0.5,1.05-0.97,2.1-1.44,3.16c0,0.01-0.01,0.02-0.01,0.02
				c-0.1,0.22-0.19,0.45-0.28,0.68c-0.2,0.5-0.4,0.99-0.59,1.49c-1.47,3.83-2.69,7.77-3.63,11.77c-0.41,1.73-0.76,3.47-1.07,5.22
				c-0.15,0.88-0.3,1.77-0.43,2.65c-0.02,0.14-0.05,0.39-0.07,0.59c-0.05,0.46-0.03,0.29,0,0c0.01-0.12,0.03-0.28,0.05-0.5
				c-0.04,0.37-0.09,0.73-0.14,1.09c-0.31,2.61-0.52,5.22-0.66,7.85c-0.19,3.65-0.26,7.29-0.12,10.94c0.07,1.9,0.19,3.8,0.36,5.7
				c0.08,0.91,0.17,1.81,0.28,2.72c0.05,0.46,0.11,0.92,0.17,1.37c0,0.03,0.01,0.06,0.01,0.08c0,0.02,0.01,0.04,0.01,0.07
				c0.63,4.46,1.52,8.89,2.77,13.22c0.35,1.21,0.73,2.41,1.14,3.6c0.35,1.02,0.72,2.03,1.1,3.03c0.24,0.62,0.49,1.25,0.74,1.87
				c0.13,0.31,0.26,0.63,0.39,0.94c-0.06-0.16-0.11-0.28-0.15-0.38c-0.13-0.33-0.23-0.58,0,0c0.06,0.16,0.13,0.33,0.18,0.43
				c2.98,6.86,6.67,13.42,11.02,19.5c0.47,0.66,0.96,1.32,1.45,1.97c0.03,0.04,0.06,0.08,0.09,0.12c0.14,0.18,0.28,0.35,0.42,0.53
				c0.41,0.52,0.83,1.04,1.25,1.55c2.27,2.76,4.67,5.42,7.18,7.96c1.98,2.01,4.04,3.95,6.17,5.8c0.94,0.82,1.9,1.62,2.87,2.4
				c0.58,0.47,1.17,0.93,1.76,1.4c0.09,0.07,0.18,0.13,0.26,0.2c0.33,0.25,0.67,0.51,1.01,0.76c4.89,3.64,10.04,6.93,15.41,9.8
				c2.85,1.52,5.75,2.93,8.7,4.23c0.42,0.18,0.84,0.37,1.26,0.55c0.02,0.01,0.04,0.02,0.06,0.02c0.18,0.07,0.36,0.15,0.53,0.22
				c0.91,0.37,1.82,0.74,2.73,1.09c1.67,0.65,3.35,1.26,5.04,1.83c5.52,1.88,11.18,3.36,16.89,4.5c2.1,0.42,4.2,0.78,6.31,1.1
				c0.52,0.08,1.03,0.15,1.55,0.22c0.58,0.07,1.16,0.15,1.75,0.21c3.17,0.37,6.36,0.62,9.55,0.77c4.02,0.18,8.05,0.19,12.08,0.02
				c2.21-0.09,4.43-0.24,6.63-0.44c1.15-0.1,2.31-0.22,3.46-0.35c0.49-0.06,0.99-0.12,1.48-0.18c0.19-0.02,0.39-0.06,0.59-0.08
				c5.83-0.84,11.62-1.99,17.3-3.56c3.67-1.02,7.31-2.19,10.88-3.52c1.4-0.52,2.79-1.06,4.17-1.63c0.16-0.07,0.47-0.2,0.67-0.29
				c0.3-0.13,0.21-0.09,0,0c-0.13,0.06-0.33,0.14-0.63,0.27C223.08,282.74,223.32,282.64,223.56,282.53z"/>
			<linearGradient id="SVGID_7_" gradientUnits="userSpaceOnUse" x1="189.9553" y1="291.6062" x2="190.4399" y2="291.6062">
				<stop  offset="0.2102" style="stop-color:#1C2747"/>
				<stop  offset="0.818" style="stop-color:#259A38"/>
			</linearGradient>
			<path class="st7" d="M190.44,291.57c-0.29,0.04-0.86,0.12-0.11,0.02C190.36,291.58,190.4,291.58,190.44,291.57z"/>
			<linearGradient id="SVGID_8_" gradientUnits="userSpaceOnUse" x1="178.0549" y1="46.7451" x2="178.1862" y2="46.7451">
				<stop  offset="0.2102" style="stop-color:#1C2747"/>
				<stop  offset="0.818" style="stop-color:#259A38"/>
			</linearGradient>
			<path class="st8" d="M178.19,46.74c-0.04,0-0.09,0.01-0.13,0.01C178.08,46.75,178.13,46.75,178.19,46.74z"/>
			<linearGradient id="SVGID_9_" gradientUnits="userSpaceOnUse" x1="178.1901" y1="46.7029" x2="178.6748" y2="46.7029">
				<stop  offset="0.2102" style="stop-color:#1C2747"/>
				<stop  offset="0.818" style="stop-color:#259A38"/>
			</linearGradient>
			<path class="st9" d="M178.19,46.74c0.29-0.04,0.86-0.12,0.11-0.02C178.27,46.73,178.23,46.73,178.19,46.74z"/>
		</g>
	</g>
</g>
</svg>
